<svg xmlns="http://www.w3.org/2000/svg" width="17" height="15" viewBox="0 0 17 15"><g><g><path fill="#0055fb" d="M3.405 14.746a2.943 2.943 0 0 1-2.096-.869 2.945 2.945 0 0 1-.869-2.096c0-.792.308-1.537.869-2.097L9.793 1.2a3.97 3.97 0 0 1 5.608 0 3.938 3.938 0 0 1 1.161 2.804 3.938 3.938 0 0 1-1.161 2.803L9.037 13.17l-.658-.657 6.364-6.364a3.038 3.038 0 0 0 0-4.292 3.038 3.038 0 0 0-4.292 0l-8.485 8.485a2.02 2.02 0 0 0-.596 1.439c0 .544.211 1.054.596 1.439a2.038 2.038 0 0 0 2.878 0l6.364-6.364a1.036 1.036 0 0 0-1.463-1.463L5.5 9.634l-.657-.658 4.242-4.243a1.968 1.968 0 0 1 2.78 0 1.968 1.968 0 0 1 0 2.78L5.5 13.876c-.56.56-1.304.869-2.096.869"/></g></g></svg>