<svg xmlns="http://www.w3.org/2000/svg" width="33" height="30" viewBox="0 0 33 30"><g><g opacity=".4"><path d="M6.8 29.482a5.887 5.887 0 0 1-4.193-1.737A5.891 5.891 0 0 1 .87 23.552c0-1.583.617-3.073 1.737-4.193l16.97-16.97c3.092-3.091 8.124-3.092 11.215 0a7.876 7.876 0 0 1 2.323 5.607c0 2.118-.825 4.11-2.323 5.607L18.064 26.33l-1.315-1.315 12.728-12.728a6.076 6.076 0 0 0 0-8.584 6.077 6.077 0 0 0-8.584 0L3.922 20.674a4.039 4.039 0 0 0-1.192 2.878c0 1.088.423 2.109 1.192 2.878a4.076 4.076 0 0 0 5.756 0l12.728-12.728a2.073 2.073 0 0 0 0-2.928 2.072 2.072 0 0 0-2.927 0l-8.486 8.486-1.315-1.315 8.485-8.486a3.936 3.936 0 0 1 5.558 0 3.935 3.935 0 0 1 0 5.558L10.993 27.745A5.887 5.887 0 0 1 6.8 29.482"/></g></g></svg>