<svg xmlns="http://www.w3.org/2000/svg" width="13" height="16" viewBox="0 0 13 16"><g><g><g/><g><path fill="#f66" d="M4 5h1v8H4z"/></g><g><path fill="#f66" d="M6 5h1v8H6z"/></g><g><path fill="#f66" d="M8 5h1v8H8z"/></g><g><path fill="#f66" d="M0 2h13v1H0z"/></g><g><path fill="#f66" d="M8.96 2.505h-.93v-1A.536.536 0 0 0 7.495.97h-2a.536.536 0 0 0-.535.535v1h-.93v-1C4.03.697 4.688.04 5.495.04h2c.808 0 1.465.657 1.465 1.465v1"/></g><g><path fill="#f66" d="M9.498 15.998h-6a1.606 1.606 0 0 1-1.575-1.458L1 2.537l.997-.077.923 12.003a.605.605 0 0 0 .578.536h6c.287 0 .557-.25.579-.535L11 2.46l.997.077-.923 12.003a1.606 1.606 0 0 1-1.576 1.459"/></g></g></g></svg>